<?xml version="1.0" encoding="utf-8"?>
<!-- Designed by Vexels.com - 2018 All Rights Reserved - https://vexels.com/terms-and-conditions/  -->
<svg version="1.1" id="Layer_1" xmlns="http://www.w3.org/2000/svg" xmlns:xlink="http://www.w3.org/1999/xlink" x="0px" y="0px"
	 viewBox="0 0 1200 1200" enable-background="new 0 0 1200 1200" xml:space="preserve">
<g>
	
		<linearGradient id="SVGID_1_" gradientUnits="userSpaceOnUse" x1="8855.5117" y1="618.447" x2="9006.1484" y2="467.8097" gradientTransform="matrix(-1 0 0 1 9365.8633 0)">
		<stop  offset="0" style="stop-color:#639DBA"/>
		<stop  offset="0.0543" style="stop-color:#5796B5"/>
		<stop  offset="0.2412" style="stop-color:#337FA4"/>
		<stop  offset="0.3407" style="stop-color:#25769E"/>
		<stop  offset="0.5549" style="stop-color:#1A6F99"/>
		<stop  offset="0.7692" style="stop-color:#25769E"/>
		<stop  offset="1" style="stop-color:#639DBA"/>
	</linearGradient>
	<path fill="url(#SVGID_1_)" d="M475.408,433.903c-1.573-4.644-202.103,47.286-191.106,100.565
		c10.968,53.249,129.047,22.789,134.231,18.938C423.71,549.571,485.724,464.558,475.408,433.903z"/>
	
		<linearGradient id="SVGID_2_" gradientUnits="userSpaceOnUse" x1="8425.8535" y1="443.1642" x2="8350.5371" y2="250.6886" gradientTransform="matrix(-1 0 0 1 9365.8633 0)">
		<stop  offset="0" style="stop-color:#1A6F99"/>
		<stop  offset="0.0818" style="stop-color:#1F729B"/>
		<stop  offset="0.1766" style="stop-color:#2D7BA2"/>
		<stop  offset="0.2779" style="stop-color:#448AAC"/>
		<stop  offset="0.3791" style="stop-color:#639DBA"/>
		<stop  offset="0.4509" style="stop-color:#5796B5"/>
		<stop  offset="0.6981" style="stop-color:#337FA4"/>
		<stop  offset="0.8297" style="stop-color:#25769E"/>
		<stop  offset="1" style="stop-color:#1A6F99"/>
	</linearGradient>
	<path fill="url(#SVGID_2_)" d="M784.946,423.265c-4.038-0.509,15.402-14.802,47.547-33.568
		c79.342-46.297,236.1-119.96,308.332-81.508c28.521,19.163-1.655,47.653-202.657,172.939
		C890.409,454.977,811.099,426.569,784.946,423.265z"/>
	<path opacity="0.48" fill="#231F20" d="M784.946,423.265c26.152,3.304,105.463,31.711,153.222,57.864
		c201.002-125.286,231.178-153.776,202.657-172.939c-18.429-9.835-42.401-12.3-69.182-9.821c3.55,0.801,8.045,1.154,13.625,0.989
		c88.399-3.574,19.292,48.266-2.149,61.205c-146.15,102.736-183.721,90.211-212.33,81.656
		c-59.646-15.155-46.88-36.917-38.296-52.521C800.348,408.463,780.908,422.756,784.946,423.265z"/>
	<g>
		
			<radialGradient id="SVGID_3_" cx="98.7753" cy="-122.4304" r="99.6372" gradientTransform="matrix(0.9671 -0.1958 0.1985 0.9801 450.481 891.275)" gradientUnits="userSpaceOnUse">
			<stop  offset="0" style="stop-color:#C49C7F"/>
			<stop  offset="0.9945" style="stop-color:#A6693D"/>
		</radialGradient>
		<path fill="url(#SVGID_3_)" d="M593.99,732.001c8.143,40.185-17.425,79.245-57.055,87.29
			c-39.675,8.031-78.412-18.024-86.563-58.253c-8.144-40.183,17.417-79.259,57.069-87.289
			C547.094,665.718,585.862,691.788,593.99,732.001z"/>
		
			<linearGradient id="SVGID_4_" gradientUnits="userSpaceOnUse" x1="161.8084" y1="-82.0742" x2="171.7421" y2="-146.6432" gradientTransform="matrix(0.9801 -0.1985 0.1985 0.9801 381.7978 904.9612)">
			<stop  offset="0.0055" style="stop-color:#F3EEF2"/>
			<stop  offset="0.1192" style="stop-color:#F0E9EB"/>
			<stop  offset="0.2793" style="stop-color:#E8DCD9"/>
			<stop  offset="0.4671" style="stop-color:#DCC5BB"/>
			<stop  offset="0.6758" style="stop-color:#CAA791"/>
			<stop  offset="0.8992" style="stop-color:#B37F5C"/>
			<stop  offset="1" style="stop-color:#A86C41"/>
		</linearGradient>
		<path fill="url(#SVGID_4_)" d="M559.762,737.231c4.299,21.201-9.185,41.832-30.131,46.102
			c-20.938,4.226-41.383-9.53-45.691-30.744c-4.292-21.216,9.185-41.878,30.131-46.088C535.01,702.246,555.477,716,559.762,737.231z
			"/>
	</g>
	
		<linearGradient id="SVGID_5_" gradientUnits="userSpaceOnUse" x1="8810.417" y1="-359.6281" x2="8874.4434" y2="-184.5013" gradientTransform="matrix(-0.9801 0.1985 0.1985 0.9801 9330.5742 -906.9745)">
		<stop  offset="0" style="stop-color:#05354C"/>
		<stop  offset="1" style="stop-color:#96AAB4"/>
	</linearGradient>
	<path fill="url(#SVGID_5_)" d="M775.184,420.142c15.883,5.97-163.297-26.565-269.803,6.465
		c-63.923,110.439,4.84,205.519,17.89,207.138c13.08,1.662,222.001-63.572,230.353-78.18
		C761.985,540.97,775.184,420.142,775.184,420.142z"/>
	
		<radialGradient id="SVGID_6_" cx="8401.957" cy="612.5993" r="937.226" gradientTransform="matrix(-1 0 0 1 9365.8633 0)" gradientUnits="userSpaceOnUse">
		<stop  offset="0" style="stop-color:#5192B1"/>
		<stop  offset="0.3287" style="stop-color:#3A83A7"/>
		<stop  offset="0.7413" style="stop-color:#23749D"/>
		<stop  offset="1" style="stop-color:#1A6F99"/>
	</radialGradient>
	<path fill="url(#SVGID_6_)" d="M195.282,410.74c-22.527,4.562-23.778,29.839-2.78,133.602
		c4.772,23.418,88.549,157.335,390.535,202.283c301.972,44.993,552.454-154.293,378.204-277.303
		c-33.651-28.197-132.53-44.027-188.596-48.439c-2.299,5.828-61.07,170.894-237.336,138.951
		c-30.146-3.91-92.766-71.394,3.476-141.109c-26.032,3.566-51.331,11.275-69.948,15.493c1.693,8.27-47.967,147.386-172.137,72.142
		C279.875,423.265,255.52,398.559,195.282,410.74z"/>
	<path opacity="0.59" fill="#FFFFFF" d="M468.763,434.323c1.678,8.255-47.945,147.386-172.122,72.128
		c-0.412,2.607-0.539,2.307-2.832,4.42c142.022,86.555,188.978-76.705,189.375-80.099
		C480.21,431.483,468.584,434.165,468.763,434.323z"/>
	
		<linearGradient id="SVGID_7_" gradientUnits="userSpaceOnUse" x1="103.3088" y1="-284.2024" x2="-222.364" y2="-69.2217" gradientTransform="matrix(0.9671 -0.1958 0.1985 0.9801 450.481 891.275)">
		<stop  offset="0" style="stop-color:#639DBA"/>
		<stop  offset="0.0543" style="stop-color:#5796B5"/>
		<stop  offset="0.2412" style="stop-color:#337FA4"/>
		<stop  offset="0.3407" style="stop-color:#25769E"/>
		<stop  offset="0.5549" style="stop-color:#1A6F99"/>
		<stop  offset="0.7692" style="stop-color:#25769E"/>
		<stop  offset="1" style="stop-color:#639DBA"/>
	</linearGradient>
	<path fill="url(#SVGID_7_)" d="M622.172,734.878C320.194,689.899,219.779,568.599,240.53,557.391
		c68.029-36.708,18.96-130.005-19.358-149.581c-7.836,0.015-16.414,1.004-25.891,2.929c-22.527,4.562-23.793,29.839-2.78,133.602
		c4.772,23.418,88.549,157.335,390.535,202.283c97.815,14.563,190.177,3.461,264.5-22.295
		C780.99,741.366,703.447,746.955,622.172,734.878z"/>
	
		<linearGradient id="SVGID_8_" gradientUnits="userSpaceOnUse" x1="8723.0049" y1="535.0101" x2="8748.166" y2="358.8837" gradientTransform="matrix(-1 0 0 1 9365.8633 0)">
		<stop  offset="0" style="stop-color:#DCE655"/>
		<stop  offset="0.5659" style="stop-color:#EAF099"/>
		<stop  offset="1" style="stop-color:#F4F7C9"/>
	</linearGradient>
	<path fill="url(#SVGID_8_)" d="M772.645,420.703c-2.308,5.828-42.821,157.949-228.72,139.625
		c-30.273-2.996-101.381-72.067-5.139-141.775c-11.732,1.588-23.268,4.06-34.176,6.66c-67.678,61.459-18.601,137.961,20.669,148.015
		c167.291,42.747,273.093-96.534,267.968-152.878C782.428,419.048,781.68,421.43,772.645,420.703z"/>
	
		<radialGradient id="SVGID_9_" cx="8731.8945" cy="367.3461" r="637.9669" gradientTransform="matrix(-1 0 0 1 9365.8633 0)" gradientUnits="userSpaceOnUse">
		<stop  offset="0" style="stop-color:#FCFDF0"/>
		<stop  offset="0.2088" style="stop-color:#B496B0"/>
		<stop  offset="0.5275" style="stop-color:#DFD2DD"/>
		<stop  offset="1" style="stop-color:#B091AC"/>
	</radialGradient>
	<path fill="url(#SVGID_9_)" d="M579.756,563.789c125.347-4.3,191.271-100.76,192.889-143.086c0,0-53.233-102.887-174.101-68.682
		c0,0-122.963,20.504-109.314,134.921C494.361,539.907,530.23,565.528,579.756,563.789z"/>
	<path opacity="0.59" fill="#FFFFFF" d="M764.652,424.344c0,0-38.386-75.499-120.29-62.711c-10.234,12.796-2.555,7.663-2.555,7.663
		s79.326-5.109,113.884,76.794C763.371,435.858,764.652,424.344,764.652,424.344z"/>
	
		<radialGradient id="SVGID_10_" cx="8797.1133" cy="482.9576" r="77.4951" gradientTransform="matrix(-1 0 0 1 9365.8633 0)" gradientUnits="userSpaceOnUse">
		<stop  offset="0" style="stop-color:#C8B2C5"/>
		<stop  offset="1" style="stop-color:#4C0543"/>
	</radialGradient>
	<path opacity="0.34" fill="url(#SVGID_10_)" d="M490.488,475.84c1.776,8.915,1.776,67.603,60.463,80.038
		c58.702,12.481,92.503-7.102,92.503-7.102l-19.566-33.771c0,0-42.694,17.755-76.488,7.086
		C502.932,507.859,490.488,475.84,490.488,475.84z"/>
	
		<radialGradient id="SVGID_11_" cx="8672.9395" cy="501.7191" r="55.9034" gradientTransform="matrix(-1 0 0 1 9365.8633 0)" gradientUnits="userSpaceOnUse">
		<stop  offset="0" style="stop-color:#C8B2C5"/>
		<stop  offset="1" style="stop-color:#4C0543"/>
	</radialGradient>
	<path opacity="0.34" fill="url(#SVGID_11_)" d="M628.112,516.129l21.614,30.864c0,0,84.346-32.932,108.011-90.548
		c-12.354,8.249-26.751,4.113-30.872,10.301c-4.104,6.173-6.164,8.226-6.164,18.518c0,10.279-10.294,7.192-17.471,11.297
		C696,500.697,670.282,495.543,628.112,516.129z"/>
	
		<radialGradient id="SVGID_12_" cx="8793.1826" cy="394.0293" r="58.3293" gradientTransform="matrix(-1 0 0 1 9365.8633 0)" gradientUnits="userSpaceOnUse">
		<stop  offset="0" style="stop-color:#C8B2C5"/>
		<stop  offset="1" style="stop-color:#4C0543"/>
	</radialGradient>
	<path opacity="0.34" fill="url(#SVGID_12_)" d="M644.648,353.73c0,0-109.9-3.281-143.933,80.615
		c15.245-10.563,31.682-35.772,71.573-51.04C612.195,368.061,596.163,356.419,644.648,353.73z"/>
	
		<linearGradient id="SVGID_13_" gradientUnits="userSpaceOnUse" x1="8723.835" y1="534.8505" x2="8748.9414" y2="359.1092" gradientTransform="matrix(-1 0 0 1 9365.8633 0)">
		<stop  offset="0" style="stop-color:#DCE655"/>
		<stop  offset="0.5659" style="stop-color:#EAF099"/>
		<stop  offset="1" style="stop-color:#F4F7C9"/>
	</linearGradient>
	<path fill="url(#SVGID_13_)" d="M538.785,418.553c26.077,1.551,43.293,10.473,54.366,19.59
		c-5.401-54.096,27.014-72.166,51.496-84.413c37.584-18.781,105.897,23.927,127.997,66.973
		c-34.289-52.567-85.282-66.973-109.202-63.557c-107.599,52.942-5.117,198.133-5.117,198.133s-6.841,6.817-17.096,5.109
		c-20.466-35.15-33.358-63.932-40.738-87.784c-19.493-21.358-41.151-43.473-70.262-42.028c-34.16,1.716-44.409,39.285-44.409,39.285
		S482.405,415.212,538.785,418.553z"/>
	<path opacity="0.48" fill="#231F20" d="M948.288,589.62c0,0-97.71-71.828-205.467-15.792
		c-107.764,55.991-152.3,14.339-215.52,15.792c-63.213,1.423-186.791-8.616-235.642-24.407
		c-48.859-15.837-84.766-30.205-84.766-30.205v14.368c0,0-8.42-8.345,5.738,11.522c21.561,30.145,76.143,84.757,162.362,110.633
		c86.204,25.846,212.65,96.279,340.529,77.581c127.886-18.684,206.891-61.804,211.205-63.228
		C931.043,684.446,998.564,618.372,948.288,589.62z"/>
	<g>
		
			<linearGradient id="SVGID_14_" gradientUnits="userSpaceOnUse" x1="8926.4814" y1="-160.3712" x2="9421.8262" y2="205.0192" gradientTransform="matrix(-0.9801 0.1985 0.1985 0.9801 9330.5742 -906.9745)">
			<stop  offset="0" style="stop-color:#05354C"/>
			<stop  offset="1" style="stop-color:#96AAB4"/>
		</linearGradient>
		<path opacity="0.45" fill="url(#SVGID_14_)" d="M632.451,669.224l-55.099,76.412c0,0-71.446-8.751-91.298-23.793
			c-21.366-16.272,71.61-44.649,71.61-44.649L632.451,669.224z"/>
		
			<linearGradient id="SVGID_15_" gradientUnits="userSpaceOnUse" x1="8896.8271" y1="546.5258" x2="9231.5684" y2="1111.4003" gradientTransform="matrix(-1 0 0 1 9365.8633 0)">
			<stop  offset="0" style="stop-color:#1A6F99"/>
			<stop  offset="0.0818" style="stop-color:#1F729B"/>
			<stop  offset="0.1766" style="stop-color:#2D7BA2"/>
			<stop  offset="0.2779" style="stop-color:#448AAC"/>
			<stop  offset="0.3791" style="stop-color:#639DBA"/>
			<stop  offset="0.4509" style="stop-color:#5796B5"/>
			<stop  offset="0.6981" style="stop-color:#337FA4"/>
			<stop  offset="0.8297" style="stop-color:#25769E"/>
			<stop  offset="1" style="stop-color:#1A6F99"/>
		</linearGradient>
		<path fill="url(#SVGID_15_)" d="M576.1,610.102c20.325,8.45,105.419,44.409,23.292,87.064
			C514.416,741.231,131.313,954.242,61.89,890.864c-69.415-63.362,181.397-186.206,330.671-257.945
			C508.887,577.019,552.922,600.466,576.1,610.102z"/>
		<path opacity="0.48" fill="#231F20" d="M576.407,610.041c-18.107-7.581-48.949-23.493-117.076-3.446
			c77.799-6.832,132.838,38.806,52.515,82.315C471.752,712.674,83.825,945.747,50.353,865.228
			c-0.292,9.274,3.386,17.845,11.837,25.591c69.437,63.378,452.541-149.618,537.509-193.697
			C681.797,654.466,596.739,618.492,576.407,610.041z"/>
	</g>
	<path opacity="0.59" fill="#FFFFFF" d="M69.441,864.78c0,0-16.406-20.827,31.217-59.512
		c47.631-38.702,236.609-148.84,346.755-191.991c-108.641,62.509-287.228,153.289-343.767,214.27
		C91.743,840.986,70.909,849.886,69.441,864.78z"/>
	<path opacity="0.59" fill="#FFFFFF" d="M1112.606,303.755c0,0-69.941-16.369-211.326,53.57
		C950.386,337.983,1027.773,308.22,1112.606,303.755z"/>
	<path opacity="0.59" fill="#FFFFFF" d="M957.833,483.826c0,0-43.165-40.206-162.197-58.051c0,20.827-10.428,40.192-22.324,58.051
		c-11.911,17.86,31.246-20.856,96.729-7.432C935.516,489.774,957.833,483.826,957.833,483.826z"/>
	<path fill="#B496B0" d="M876.364,537.854c44.633-63.692,123.885-83.514,176.998-44.259c53.099,39.285,59.97,122.754,15.335,186.476
		c-44.633,63.737-123.871,83.515-176.991,44.26C838.591,685.031,831.715,601.561,876.364,537.854z"/>
	<path opacity="0.42" fill="#FFFFFF" d="M984.621,590.953c0,0,23.808,4.481,16.377,17.861c-7.44,13.38-14.894,11.897-14.894,11.897
		S1003.979,607.344,984.621,590.953z"/>
	<path fill="#B8D2DF" d="M876.364,537.854c-40.522,57.833-38.581,132.028,1.881,174.549
		c130.424-56.365,189.546-159.926,91.364-236.863C934.811,481.893,900.524,503.378,876.364,537.854z"/>
	<path fill="#B699B2" d="M879.72,538.603c23.726-33.846,57.346-54.987,91.501-61.4c-0.653-0.539-1.304-1.064-1.964-1.618
		c-34.805,6.383-69.107,27.868-93.245,62.328c-40.513,57.849-38.589,131.999,1.881,174.521c1.221-0.481,2.419-1.035,3.618-1.589
		C841.641,668.834,839.746,595.687,879.72,538.603z"/>
	<g>
		<path fill="#DACBD8" d="M1030.17,678.648c-0.644-6.728-30.947,40.588-78.951,28.872c1.063-2.652,41.922-11.657,62.186-35.869
			c-7.319,5.125-30.827,17.05-55.587,15.013c17.552-8.015,33.052-9.604,49.63-32.497c-5.752,5.033-24.429,15.567-47.869,14.803
			c4.389-1.693,21.23-3.387,28.137-18.804c-0.787,1.318-19.073,4.96-22.804-0.823c3.378-9.665,12.743-10.863,17.941-18.984
			c-0.314,0.525-19.672,8.121-22.818-9.858c0,0-1.415,32.887-15.252,2.157c-1.604-3.536-1.874,14.264,1.228,25.89
			c-1.626-0.629-16.308-7.461-21.216-35.899c-2.082-20.735-3.873,17.215,6.825,39.33c10.712,22.159-28.603-12.9-21.411-44.214
			c7.214-31.359-15.926,7.762,9.035,63.468c-5.589,5.304-33.839-42.238-31.793-76.294c2.022-34.041-18.047,18.13,15.08,84.759
			c1.221,5.422-31.359-27.104-29.801-64.906c-3.147,12.001-4.675,27.329-1.806,37.997c44.716,103.127,136.523,65.999,158.324,51.511
			c2.135-6.188-21.44,12.871-39.195,10.174C1002.421,709.048,1030.746,688.402,1030.17,678.648z"/>
		<path fill="#DACBD8" d="M938.085,525.119c-1.273,6.652,41.06-29.936,83.911-4.959c-1.745,2.233-43.539-0.884-69.76,16.497
			c8.458-2.802,34.363-7.492,57.587,1.558c-19.103,2.652-34.445-0.27-56.785,16.9c6.944-3.147,27.838-7.881,50.163-0.434
			c-4.734,0.329-21.374-2.846-32.326,9.903c1.117-1.049,19.702,0.719,21.68,7.372c-5.955,8.241-15.29,6.713-22.557,13.035
			c0.443-0.45,21.187-2.188,19.149,15.971c0,0,10.593-31.134,15.259,2.277c0.547,3.897,5.799-13.123,6.061-25.11
			c1.409,1.033,13.574,11.806,10.346,40.453c-3.829,20.467,8.517-15.372,4.45-39.629c-4.097-24.242,23.875,20.571,8.151,48.545
			c-15.665,27.927,17.477-2.893,9.116-63.438c6.878-3.446,20.676,50.208,9.2,82.241c-11.484,31.974,22.423-12.225,9.222-85.507
			c0.345-5.558,22.534,34.939,10.451,70.689c6.39-10.593,12.142-24.825,12.359-35.854
			c-14.054-111.592-112.632-102.392-137.595-94.751c-3.828,5.334,24.175-6.158,40.461,1.468
			C973.249,503.993,940.258,515.634,938.085,525.119z"/>
	</g>
	
		<radialGradient id="SVGID_16_" cx="8370.7266" cy="611.5509" r="79.8786" gradientTransform="matrix(-1 0 0 1 9365.8633 0)" gradientUnits="userSpaceOnUse">
		<stop  offset="0" style="stop-color:#5192B1"/>
		<stop  offset="0.3287" style="stop-color:#3A83A7"/>
		<stop  offset="0.7413" style="stop-color:#23749D"/>
		<stop  offset="1" style="stop-color:#1A6F99"/>
	</radialGradient>
	<path fill="url(#SVGID_16_)" d="M1005.598,601.8c2.48,12.197-5.919,24.153-18.729,26.715c-12.818,2.591-25.201-5.155-27.651-17.305
		c-2.479-12.211,5.912-24.167,18.737-26.759C990.766,581.843,1003.14,589.62,1005.598,601.8z"/>
</g>
</svg>
